<?xml version="1.0" standalone="no"?>
<!DOCTYPE svg PUBLIC "-//W3C//DTD SVG 20010904//EN"
 "http://www.w3.org/TR/2001/REC-SVG-20010904/DTD/svg10.dtd">
<svg version="1.0" xmlns="http://www.w3.org/2000/svg"
 width="500.000000pt" height="500.000000pt" viewBox="0 0 500.000000 500.000000"
 preserveAspectRatio="xMidYMid meet">

<g transform="translate(0.000000,500.000000) scale(0.100000,-0.100000)"
fill="#000000" stroke="none">
<path d="M3206 3537 c-53 -53 -17 -147 56 -147 41 0 78 40 78 83 0 46 -26 76
-72 83 -30 5 -41 2 -62 -19z"/>
<path d="M3568 3336 c-52 -19 -83 -40 -111 -78 -32 -43 -42 -77 -67 -227 -22
-132 -44 -187 -86 -220 -32 -25 -47 -26 -64 -6 -11 13 -7 52 17 213 33 211 31
234 -12 254 -31 14 -67 0 -89 -34 -8 -13 -26 -93 -41 -178 -22 -136 -29 -158
-51 -177 -33 -30 -60 -29 -80 3 -17 25 -16 29 14 122 36 108 39 140 17 181
-23 46 -77 55 -131 22 -70 -42 -116 -210 -81 -293 15 -36 15 -41 -5 -85 -30
-69 -69 -127 -77 -117 -4 5 -3 98 2 207 7 142 7 205 -1 222 -20 44 -98 46
-126 2 -10 -14 -18 -71 -24 -162 -12 -163 -27 -203 -90 -228 -32 -13 -38 -13
-45 0 -5 9 -2 28 9 51 11 24 17 63 18 113 1 72 -1 80 -30 115 -39 50 -87 74
-148 74 -71 0 -121 -18 -170 -62 -55 -48 -69 -82 -96 -248 -25 -152 -50 -209
-100 -230 -27 -11 -34 -11 -47 3 -14 14 -11 39 31 274 52 292 55 339 25 392
-32 57 -79 84 -147 84 -69 0 -117 -19 -170 -67 l-40 -37 -39 27 c-50 34 -124
31 -176 -9 -33 -25 -37 -26 -69 -13 -41 17 -80 11 -106 -18 -28 -29 -169 -844
-152 -875 34 -64 136 -47 155 26 4 16 31 166 60 335 29 168 61 320 69 336 45
87 136 78 136 -13 0 -16 -23 -155 -50 -307 -28 -153 -50 -287 -50 -298 0 -36
36 -61 82 -58 69 5 74 18 133 364 56 320 72 384 108 409 33 23 74 19 93 -10
16 -24 14 -38 -25 -258 -22 -128 -41 -248 -41 -266 0 -51 36 -117 77 -142 70
-43 200 -21 262 45 l22 23 37 -18 c91 -47 233 -6 291 84 21 31 30 37 60 37 20
0 54 9 76 19 l40 18 35 -39 c37 -42 90 -58 144 -44 39 10 91 61 132 127 27 46
40 59 53 53 38 -16 89 -23 124 -17 32 5 40 2 57 -20 30 -37 100 -61 157 -53
55 7 125 46 154 85 l21 29 35 -20 c22 -13 59 -23 104 -26 187 -13 362 106 414
281 19 65 19 80 -3 100 -42 38 -100 4 -121 -70 -28 -102 -134 -183 -238 -183
-44 0 -58 5 -78 25 -15 14 -25 36 -25 53 l0 28 63 -4 c85 -5 158 32 202 102
98 160 -48 336 -227 272z m84 -123 c36 -43 25 -99 -21 -109 -14 -3 -30 -7 -36
-8 -5 -2 -17 0 -26 3 -15 5 -15 12 -4 55 18 69 56 95 87 59z m-1348 -242 c12
-13 16 -32 14 -62 -2 -36 -8 -46 -30 -57 -37 -18 -68 -59 -68 -93 0 -15 11
-41 25 -57 14 -17 25 -35 25 -41 0 -21 -40 -51 -68 -51 -59 0 -63 28 -32 215
16 104 23 123 45 143 32 27 66 28 89 3z"/>
<path d="M2853 2404 c-21 -21 -24 -32 -19 -62 7 -47 37 -72 86 -72 52 0 84 39
76 90 -11 70 -92 95 -143 44z"/>
<path d="M2532 2378 c-15 -17 -26 -57 -44 -156 l-23 -134 -50 -16 c-61 -21
-79 -54 -51 -97 14 -21 24 -26 47 -23 16 3 29 2 29 -2 0 -43 -53 -308 -65
-328 -25 -40 -56 -62 -87 -62 -36 0 -36 9 1 240 17 100 27 189 24 198 -19 54
-79 69 -127 31 -22 -18 -42 -22 -105 -23 -69 -1 -82 -4 -114 -29 -21 -16 -44
-39 -53 -52 -8 -13 -29 -99 -45 -192 -16 -92 -34 -181 -41 -196 -21 -53 -91
-87 -105 -51 -3 8 2 49 11 90 24 110 21 173 -8 217 l-25 36 26 47 c27 48 42
156 29 208 -10 40 -63 93 -112 112 -55 21 -140 14 -191 -16 -32 -19 -37 -19
-53 -5 -24 22 -65 19 -96 -8 -25 -22 -29 -40 -98 -451 l-71 -428 29 -25 c23
-19 36 -24 60 -19 65 13 74 34 114 264 l36 212 22 -21 c20 -18 30 -21 66 -14
86 14 101 12 108 -15 3 -14 0 -62 -8 -106 -18 -97 -11 -142 26 -182 60 -64
175 -65 266 -3 42 29 46 30 73 16 56 -30 137 -14 198 38 28 23 33 24 55 11 62
-34 196 -7 250 51 21 23 24 23 51 9 76 -39 186 -23 263 38 37 30 39 30 66 14
34 -20 118 -21 163 -3 18 8 49 12 69 9 31 -3 42 1 66 25 30 30 38 60 78 323
17 111 24 131 57 168 24 25 65 29 74 6 3 -8 -5 -78 -17 -154 -32 -195 -20
-243 67 -282 71 -31 159 -12 224 49 23 21 27 22 38 9 7 -9 28 -18 47 -22 l35
-6 -57 -29 c-62 -30 -118 -79 -140 -121 -8 -15 -14 -49 -14 -76 0 -99 83 -167
195 -159 95 7 166 52 207 131 11 21 27 80 37 130 l16 91 70 46 c124 83 199
183 230 307 19 80 10 118 -30 128 -41 10 -71 -18 -90 -83 -23 -78 -62 -148
-103 -184 -19 -17 -36 -28 -39 -26 -2 3 12 101 32 218 22 127 34 227 30 246
-11 59 -69 70 -117 23 -30 -30 -30 -30 -74 -15 -92 31 -204 -24 -238 -118 -9
-23 -25 -98 -36 -167 -11 -69 -27 -144 -36 -167 -25 -69 -104 -120 -120 -78
-3 8 3 70 15 139 29 169 28 210 -5 254 -47 61 -127 79 -198 42 -28 -14 -50
-18 -80 -14 -75 11 -80 0 -125 -250 -36 -198 -42 -221 -67 -247 -29 -31 -64
-38 -82 -16 -8 9 -2 70 21 213 30 193 30 203 14 228 -23 34 -74 36 -105 3 -23
-24 -35 -68 -57 -215 -23 -157 -35 -198 -65 -240 -48 -67 -132 -82 -146 -26
-7 29 34 313 47 330 5 6 28 14 52 17 48 7 77 35 77 77 0 38 -22 53 -70 48 -37
-3 -41 -2 -36 17 3 11 11 63 18 116 10 87 10 99 -5 123 -23 34 -74 36 -105 4z
m1336 -206 c17 -22 15 -61 -7 -187 -15 -81 -26 -114 -43 -132 -31 -34 -55 -45
-78 -38 -26 8 -26 33 2 203 18 113 25 140 45 160 25 25 58 23 81 -6z m-2296
-129 c24 -28 30 -59 19 -100 -17 -58 -26 -67 -65 -65 -40 3 -93 -16 -121 -44
-18 -18 -18 -18 -12 6 3 14 9 48 12 75 4 28 16 65 27 83 35 57 109 80 140 45z
m556 -196 c12 -25 12 -46 -3 -145 -9 -64 -23 -129 -31 -144 -25 -47 -74 -59
-88 -21 -9 22 23 272 40 311 11 28 18 33 41 30 19 -2 32 -12 41 -31z m1637
-329 c-9 -54 -23 -75 -57 -89 -37 -15 -62 3 -53 40 9 34 22 49 64 71 50 27 54
25 46 -22z"/>
</g>
</svg>
